<svg xmlns="http://www.w3.org/2000/svg" xmlns:xlink="http://www.w3.org/1999/xlink" width="313" height="347" viewBox="0 0 313 347">
  <defs>
    <polygon id="hxgf-bug-a" points="268.354 147 268.354 79.194 273.997 79.194 273.997 107.943 300.835 107.943 300.835 79.194 306.478 79.194 306.478 147 300.835 147 300.835 113.23 273.997 113.23 273.997 147"/>
    <polygon id="hxgf-bug-b" points="219.221 147 236.772 112.075 220.421 79.194 226.597 79.194 240.327 106.032 254.546 79.194 261.255 79.194 243.704 111.853 261.255 147 254.812 147 240.238 117.718 225.575 147"/>
    <path id="hxgf-bug-c" d="M67.3613281,164.408203 L87.6230469,164.408203 L87.6230469,198 L83.1796875,198 L82.5576172,191.068359 C80.7802646,193.764011 78.6770955,195.822747 76.2480469,197.244629 C73.8189983,198.666511 71.1530093,199.377441 68.25,199.377441 C61.5256825,199.377441 56.5565753,196.496692 53.3425293,190.735107 C50.1284833,184.973523 48.5214844,176.079487 48.5214844,164.052734 C48.5214844,151.818624 50.1581054,142.87275 53.4313965,137.214844 C56.7046876,131.556938 61.8515274,128.728027 68.8720703,128.728027 C74.2633733,128.728027 78.5363612,130.431298 81.6911621,133.837891 C84.845963,137.244483 86.6751277,142.13213 87.1787109,148.500977 L81.4467773,148.500977 C80.9431941,143.87986 79.587983,140.310397 77.3811035,137.79248 C75.174224,135.274564 72.3082859,134.015625 68.7832031,134.015625 C63.8658608,134.015625 60.2445592,136.437232 57.9191895,141.280518 C55.5938198,146.123804 54.4311523,153.714467 54.4311523,164.052734 C54.4311523,174.331757 55.5790087,181.907609 57.8747559,186.780518 C60.170503,191.653426 63.7177494,194.089844 68.5166016,194.089844 C73.1377184,194.089844 76.6183151,191.99408 78.9584961,187.80249 C81.2986771,183.6109 82.46875,177.397665 82.46875,169.162598 L67.3613281,169.162598 L67.3613281,164.408203 Z"/>
    <polygon id="hxgf-bug-d" points="5.021 197.911 5.021 130.105 36.169 130.105 36.169 135.393 11.153 135.393 11.153 159.876 33.592 159.876 33.592 165.075 11.153 165.075 11.153 197.911"/>
  </defs>
  <g transform="translate(0 2)">
    <polygon stroke="#000" stroke-width="2" points="76 342.375 78.005 343 181 17.625 178.993 17"/>
    <polygon stroke="#000" stroke-width="2" points="204.993 0 102 325.377 104.005 326 207 .626"/>
    <g transform="rotate(-180 287.416 113.097)">
      <use xlink:href="#hxgf-bug-a"/>
      <use xlink:href="#hxgf-bug-a"/>
    </g>
    <g transform="rotate(-180 240.238 113.097)">
      <use xlink:href="#hxgf-bug-b"/>
      <use xlink:href="#hxgf-bug-b"/>
    </g>
    <g transform="rotate(-180 68.072 164.053)">
      <use xlink:href="#hxgf-bug-c"/>
      <use xlink:href="#hxgf-bug-c"/>
    </g>
    <g transform="rotate(-180 20.595 164.008)">
      <use xlink:href="#hxgf-bug-d"/>
      <use xlink:href="#hxgf-bug-d"/>
    </g>
  </g>
</svg>
